<svg xmlns="http://www.w3.org/2000/svg" xmlns:xlink="http://www.w3.org/1999/xlink" width="500" zoomAndPan="magnify" viewBox="0 0 375 149.999998" height="200" preserveAspectRatio="xMidYMid meet" version="1.0"><defs><clipPath id="0a4b522a96"><path d="M 5.375 10 L 367 10 L 367 135 L 5.375 135 Z M 5.375 10 " clip-rule="nonzero"/></clipPath><clipPath id="62d6eb8ead"><path d="M 5.375 89 L 366 89 L 366 135 L 5.375 135 Z M 5.375 89 " clip-rule="nonzero"/></clipPath><clipPath id="db83456dcd"><path d="M 202.207031 101.714844 L 221.519531 101.714844 L 221.519531 121.03125 L 202.207031 121.03125 Z M 202.207031 101.714844 " clip-rule="nonzero"/></clipPath><clipPath id="876af56b3c"><path d="M 211.863281 101.714844 C 206.53125 101.714844 202.207031 106.039062 202.207031 111.371094 C 202.207031 116.707031 206.53125 121.03125 211.863281 121.03125 C 217.195312 121.03125 221.519531 116.707031 221.519531 111.371094 C 221.519531 106.039062 217.195312 101.714844 211.863281 101.714844 Z M 211.863281 101.714844 " clip-rule="nonzero"/></clipPath></defs><g clip-path="url(#0a4b522a96)"><path fill="#eaf7f9" d="M 5.375 95.78125 C 5.375 95.78125 69.949219 95.359375 72.496094 89.414062 C 75.046875 83.472656 81.84375 61.828125 93.3125 60.976562 C 104.785156 60.128906 110.308594 64.375 110.308594 64.375 C 110.308594 64.375 116.253906 34.238281 130.699219 29.566406 C 145.566406 24.898438 155.339844 32.539062 155.339844 32.539062 C 155.339844 32.539062 159.164062 11.316406 182.101562 10.46875 C 205.042969 9.621094 218.636719 22.351562 226.285156 33.8125 C 233.929688 45.699219 239.453125 55.035156 239.453125 55.035156 C 239.453125 55.035156 243.703125 44.847656 271.742188 52.488281 C 299.355469 60.128906 314.222656 78.804688 314.222656 78.804688 C 314.222656 78.804688 369.875 83.050781 366.050781 100.027344 C 362.230469 117.003906 326.542969 114.035156 326.542969 114.035156 C 326.542969 114.035156 321.871094 125.917969 302.753906 125.492188 C 283.636719 125.070312 279.8125 115.730469 253.898438 122.945312 C 227.984375 129.738281 204.195312 120.398438 204.195312 120.398438 C 204.195312 120.398438 181.253906 129.3125 168.082031 125.917969 C 154.914062 122.523438 142.59375 140.347656 118.804688 133.132812 C 95.011719 125.917969 97.5625 118.277344 77.171875 115.308594 C 56.78125 112.335938 5.375 95.78125 5.375 95.78125 Z M 5.375 95.78125 " fill-opacity="1" fill-rule="evenodd"/></g><path fill="#c3def0" d="M 150.242188 69.042969 C 150.242188 69.042969 153.640625 52.488281 174.03125 53.761719 C 194.421875 54.609375 196.972656 63.101562 196.972656 63.101562 C 196.972656 63.101562 171.90625 46.546875 150.242188 69.042969 Z M 150.242188 69.042969 " fill-opacity="1" fill-rule="evenodd"/><path fill="#c3def0" d="M 242.003906 72.863281 C 242.003906 72.863281 254.324219 62.25 272.589844 69.464844 C 290.859375 76.683594 289.582031 86.867188 289.582031 86.867188 C 289.582031 86.867188 270.890625 63.523438 242.003906 72.863281 Z M 242.003906 72.863281 " fill-opacity="1" fill-rule="evenodd"/><g clip-path="url(#62d6eb8ead)"><path fill="#c3def0" d="M 177.855469 111.488281 C 162.5625 111.488281 148.542969 105.121094 148.542969 105.121094 C 148.542969 105.121094 147.265625 106.394531 134.523438 113.609375 C 121.777344 120.824219 108.183594 116.15625 88.214844 104.269531 C 81.417969 100.027344 75.046875 95.359375 69.949219 91.113281 C 57.203125 95.359375 5.375 95.78125 5.375 95.78125 C 5.375 95.78125 56.355469 112.335938 76.746094 115.308594 C 97.136719 118.277344 94.589844 125.917969 118.378906 133.132812 C 142.167969 140.347656 154.488281 122.523438 167.660156 125.917969 C 180.828125 129.3125 203.769531 120.398438 203.769531 120.398438 C 203.769531 120.398438 227.558594 129.738281 253.472656 122.945312 C 279.386719 116.15625 283.210938 125.492188 302.328125 125.492188 C 321.445312 125.917969 326.117188 114.035156 326.117188 114.035156 C 326.117188 114.035156 362.230469 117.003906 365.628906 100.027344 C 366.476562 95.78125 363.929688 92.386719 359.679688 89.839844 C 352.03125 94.507812 340.5625 99.601562 324.417969 100.453125 C 292.558594 101.722656 291.707031 94.507812 289.582031 94.933594 C 287.035156 95.359375 267.917969 109.363281 250.5 110.214844 C 233.082031 111.0625 205.46875 97.90625 205.46875 97.90625 C 205.46875 97.90625 193.148438 111.488281 177.855469 111.488281 Z M 177.855469 111.488281 " fill-opacity="1" fill-rule="evenodd"/></g><g clip-path="url(#db83456dcd)"><g clip-path="url(#876af56b3c)"><path fill="#c3def0" d="M 202.207031 101.714844 L 221.519531 101.714844 L 221.519531 121.03125 L 202.207031 121.03125 Z M 202.207031 101.714844 " fill-opacity="1" fill-rule="nonzero"/></g></g></svg>