<svg xmlns="http://www.w3.org/2000/svg" xmlns:xlink="http://www.w3.org/1999/xlink" width="500" zoomAndPan="magnify" viewBox="0 0 375 374.999991" height="500" preserveAspectRatio="xMidYMid meet" version="1.0"><defs><clipPath id="26979e7297"><path d="M 246 163 L 260.90625 163 L 260.90625 189 L 246 189 Z M 246 163 " clip-rule="nonzero"/></clipPath></defs><path fill="#f68a8b" d="M 231.621094 302.546875 C 220.558594 281.390625 198.496094 240 190.523438 233.480469 C 188.058594 200.453125 192.378906 185.707031 191.886719 186.03125 L 176.929688 205.613281 L 176.828125 203.996094 L 167.21875 191.917969 C 166.972656 198.679688 166.542969 210.386719 166.09375 220.976562 C 166.640625 225.808594 167.507812 230.648438 168.242188 235.488281 C 169.070312 240.949219 171.039062 246.1875 174.097656 250.789062 C 182.816406 263.910156 193.347656 275.542969 203.8125 287.460938 C 204.980469 288.785156 204.878906 290.34375 204.160156 291.519531 L 218.507812 306.613281 C 223.417969 310.703125 228.796875 319.554688 230.8125 324.003906 C 232.339844 327.378906 232.082031 331.152344 232.921875 334.738281 C 233.054688 335.296875 233.28125 336.398438 233.597656 337.617188 C 236.46875 337.453125 240.144531 330.921875 239.578125 325.039062 C 238.796875 316.972656 238.335938 315.8125 238.953125 312.144531 C 239.566406 308.480469 238.351562 307.894531 231.621094 302.546875 Z M 231.621094 302.546875 " fill-opacity="1" fill-rule="nonzero"/><path fill="#653750" d="M 242.421875 309.328125 C 239.207031 304.933594 236.371094 303.382812 235.117188 302.871094 C 235.078125 302.855469 235.042969 302.839844 235.003906 302.824219 C 234.644531 302.6875 234.425781 302.636719 234.425781 302.636719 L 234.429688 302.648438 C 233.597656 302.40625 232.707031 302.292969 231.914062 302.246094 C 232.371094 303.746094 232.871094 305.234375 233.386719 306.71875 C 235.886719 310.097656 238.601562 314.996094 238.191406 319.972656 C 237.488281 328.472656 236.082031 332.21875 232.585938 333.984375 C 233.085938 336.214844 233.507812 341.953125 235.441406 342.035156 C 237.351562 342.117188 240.414062 338.046875 241.0625 336.828125 C 242.796875 333.558594 244.015625 330.503906 243.703125 326.945312 C 243.648438 326.3125 243.152344 324.976562 243.402344 324.484375 C 242.441406 321.289062 241.503906 318.304688 241.386719 315.621094 C 241.359375 315.011719 241.328125 314.484375 241.296875 313.945312 L 241.300781 313.945312 C 244.195312 315.792969 245.882812 317.167969 247.984375 318.5 C 249.367188 318.621094 249.875 317.613281 249.753906 316.445312 C 247.886719 314.453125 245.449219 313.464844 242.421875 309.328125 Z M 242.421875 309.328125 " fill-opacity="1" fill-rule="nonzero"/><path fill="#b2bedd" d="M 184.429688 72.382812 C 175.132812 91.039062 174.085938 96.851562 166.957031 108.199219 C 163.921875 113.011719 158.363281 117.765625 153.640625 111.972656 C 151.492188 109.34375 153.382812 104.226562 154.167969 101.339844 C 157.949219 87.496094 162.570312 73.433594 168.898438 60.527344 C 170.363281 57.53125 171.996094 54.492188 174.578125 52.394531 C 178.695312 49.035156 185.035156 50.074219 187.707031 54.953125 C 190.230469 59.566406 186.617188 67.992188 184.429688 72.382812 Z M 184.429688 72.382812 " fill-opacity="1" fill-rule="nonzero"/><path fill="#faa0a0" d="M 166.957031 108.199219 C 163.921875 113.011719 158.363281 117.765625 153.640625 111.972656 C 151.492188 109.34375 153.382812 104.226562 154.167969 101.34375 C 154.167969 101.339844 163.730469 100.125 166.957031 108.199219 Z M 166.957031 108.199219 " fill-opacity="1" fill-rule="nonzero"/><path fill="#f99fa0" d="M 222.769531 203.199219 C 222.769531 203.199219 190.71875 181.390625 190.71875 181.398438 C 187.273438 202.921875 176.703125 216.746094 176.953125 233.773438 C 177.289062 256.574219 181.511719 261.164062 186.070312 289.3125 C 187.953125 300.941406 189.101562 326.8125 188.40625 338.4375 C 187.777344 348.988281 182.367188 358.207031 177.402344 367.171875 C 177.109375 367.699219 176.808594 368.28125 176.886719 368.902344 C 177.023438 369.988281 178.195312 370.582031 179.214844 370.816406 C 182.75 371.628906 186.542969 370.566406 189.101562 368.042969 C 192.855469 364.347656 194.679688 360.703125 199.457031 358.199219 C 199.570312 358.140625 199.664062 358.054688 199.773438 357.988281 C 202.492188 356.789062 203.921875 353.667969 203.164062 350.566406 L 201.34375 343.09375 C 219.964844 276.070312 202.027344 240.625 202.027344 240.625 C 202.027344 240.625 222.382812 206.609375 222.769531 203.199219 Z M 222.769531 203.199219 " fill-opacity="1" fill-rule="nonzero"/><path fill="#f68a8b" d="M 197.628906 22.589844 L 203.980469 48.40625 C 203.980469 48.40625 205.34375 52.402344 205.28125 53.503906 C 205.238281 54.585938 199.792969 59.234375 195.058594 59.785156 C 192.789062 60.046875 191.023438 59.910156 189.785156 59.703125 C 188.425781 59.46875 187.710938 59.140625 187.710938 59.140625 L 187.257812 52.253906 C 187.257812 52.253906 187.238281 52.253906 187.207031 52.253906 L 186.679688 44.339844 L 186.410156 40.210938 L 186.1875 36.878906 C 191.273438 33.890625 195.269531 28.546875 197.628906 22.589844 Z M 197.628906 22.589844 " fill-opacity="1" fill-rule="nonzero"/><path fill="#643750" d="M 187.796875 15.5 C 187.972656 9.519531 190.390625 5.261719 193.917969 3.421875 C 197.574219 1.515625 202.421875 2.203125 207.21875 6.265625 C 210.679688 9.195312 213.242188 13.042969 215.417969 17.023438 C 219.023438 23.625 221.675781 30.742188 223.296875 38.09375 C 222.578125 41.652344 221.210938 45.007812 218.671875 47.789062 C 215.691406 51.050781 211.558594 52.96875 207.332031 54.179688 C 200.394531 50.21875 201.183594 39.511719 200.109375 32.457031 C 200.054688 32.085938 199.953125 31.753906 199.816406 31.457031 C 200.410156 31.085938 201.003906 30.71875 201.542969 30.273438 C 202.679688 29.347656 203.09375 27.707031 202.441406 26.265625 C 201.855469 24.960938 200.160156 23.738281 198.742188 24.082031 C 197.527344 24.375 196.429688 24.789062 195.355469 25.261719 C 195.347656 25.25 195.339844 25.238281 195.324219 25.226562 C 193.394531 23.222656 190.890625 22.183594 188.257812 21.742188 C 187.902344 19.484375 187.738281 17.371094 187.796875 15.5 Z M 187.796875 15.5 " fill-opacity="1" fill-rule="nonzero"/><path fill="#ffa897" d="M 178.625 20.339844 C 178.371094 15.976562 181.003906 12.796875 184.457031 10.265625 C 184.855469 10.636719 185.28125 11.070312 185.738281 11.578125 C 188.984375 15.175781 192.917969 18.023438 197.179688 19.863281 C 198.800781 20.566406 200.515625 21.15625 201.824219 22.433594 C 202.777344 23.363281 203.441406 24.597656 203.949219 25.871094 C 205.511719 29.816406 206.085938 31.839844 203.640625 34.847656 C 199.558594 39.878906 189.269531 49.488281 183.15625 45.105469 C 178.179688 41.539062 177.140625 30.039062 177.546875 22.988281 C 178.238281 22.390625 178.691406 21.503906 178.625 20.339844 Z M 178.625 20.339844 " fill-opacity="1" fill-rule="nonzero"/><path fill="#643750" d="M 205.941406 27.179688 C 205.652344 24.132812 204.457031 21.53125 202.417969 19.253906 C 200.957031 17.625 198.800781 17.878906 197.46875 18.941406 C 195.085938 17.761719 192.574219 16.871094 190.371094 16.195312 C 186.863281 15.121094 181.496094 13.792969 177.777344 15.542969 C 178.597656 12.148438 180.15625 9.089844 182.894531 6.691406 C 183.664062 6.015625 184.480469 5.40625 185.324219 4.839844 C 185.855469 4.828125 186.402344 4.695312 186.929688 4.386719 C 189.863281 2.691406 193.347656 1.800781 196.84375 1.652344 C 198.417969 2.046875 199.941406 2.675781 201.371094 3.550781 C 201.953125 4.042969 202.515625 4.5625 203.039062 5.132812 C 204.421875 6.644531 205.597656 8.394531 206.542969 10.296875 C 206.796875 10.808594 207.023438 11.324219 207.238281 11.835938 C 207.375 12.382812 207.5 12.929688 207.617188 13.488281 C 209.214844 21.074219 215.070312 31.265625 213.6875 39.003906 C 212.960938 43.070312 208.3125 49.789062 203.8125 47.078125 C 199.089844 44.230469 200.835938 35.855469 201.015625 30.503906 C 203.042969 31.691406 206.183594 29.722656 205.941406 27.179688 Z M 205.941406 27.179688 " fill-opacity="1" fill-rule="nonzero"/><path fill="#643750" d="M 174.882812 19.441406 C 175.066406 15.707031 177.140625 11.414062 178.941406 9.054688 C 181.851562 5.230469 186.210938 2.59375 190.894531 1.542969 C 196.699219 0.238281 203.722656 1.886719 206.523438 7.136719 C 208.285156 10.433594 207.902344 14.355469 209.425781 17.695312 C 211.265625 21.726562 209.652344 27.628906 204.617188 30.453125 C 198.28125 34.011719 197.667969 25.097656 196.449219 18.976562 C 193.972656 24.402344 179.214844 31.28125 175.460938 23.019531 C 174.980469 21.960938 174.816406 20.734375 174.882812 19.441406 Z M 174.882812 19.441406 " fill-opacity="1" fill-rule="nonzero"/><path fill="#ffa897" d="M 204.144531 36.496094 L 205.46875 34.742188 C 206.558594 33.296875 206.273438 31.214844 204.828125 30.125 C 203.382812 29.03125 201.308594 29.316406 200.214844 30.761719 L 198.890625 32.515625 C 197.800781 33.960938 198.085938 36.039062 199.53125 37.132812 C 200.972656 38.226562 203.050781 37.941406 204.144531 36.496094 Z M 204.144531 36.496094 " fill-opacity="1" fill-rule="nonzero"/><path fill="#643750" d="M 201.542969 30.273438 C 201.542969 30.273438 193.519531 35.09375 192.421875 21.542969 C 191.324219 7.988281 200.46875 9.453125 200.46875 9.453125 L 204.859375 19.34375 C 204.859375 19.34375 205.59375 23.738281 204.496094 24.472656 C 203.398438 25.203125 201.542969 30.273438 201.542969 30.273438 Z M 201.542969 30.273438 " fill-opacity="1" fill-rule="nonzero"/><path fill="#616fa4" d="M 211.65625 134.125 C 205.324219 133.917969 198.933594 134.230469 192.546875 134.417969 C 187.949219 135.121094 183.289062 135.875 178.722656 135.9375 C 175.015625 138.621094 171.285156 141.25 167.277344 143.375 C 164 163.898438 160.066406 196.917969 163.015625 222.292969 C 172.25 229.839844 188.679688 238.535156 201.277344 237.683594 C 211.976562 236.960938 212.632812 235.90625 217.261719 232.585938 C 220.863281 217.695312 228.566406 191.183594 228.457031 174.582031 C 228.367188 161.175781 223.628906 141.757812 218.328125 135.769531 C 218.308594 135.742188 216.019531 134.84375 211.65625 134.125 Z M 211.65625 134.125 " fill-opacity="1" fill-rule="nonzero"/><path fill="#dadef0" d="M 166.027344 148.015625 C 171.484375 155.226562 179.484375 159.980469 188.335938 161.265625 C 190.363281 161.5625 192 161.792969 192.652344 161.867188 C 193.328125 161.9375 194.003906 162.003906 194.671875 162.074219 C 197.527344 161.890625 200.363281 161.640625 203.128906 161.230469 C 206.015625 160.636719 208.835938 159.761719 211.550781 158.621094 C 213 158.011719 214.421875 157.320312 215.804688 156.558594 C 216.710938 156.058594 217.589844 155.53125 218.449219 154.96875 C 220.644531 153.546875 222.71875 151.910156 224.65625 150.070312 C 222.671875 143.101562 220.683594 136.132812 218.691406 129.164062 C 216.972656 123.128906 216.160156 118.320312 216.578125 113.253906 C 216.804688 110.363281 217.445312 107.382812 218.546875 104.042969 C 221.28125 95.679688 225.101562 88.09375 227.441406 80.015625 C 228.515625 76.300781 229.5 72.117188 228.46875 68.40625 C 228.050781 66.898438 227.296875 65.46875 226.089844 64.183594 C 221.910156 59.75 216.75 57.730469 211.234375 55.570312 C 210.945312 55.457031 210.65625 55.34375 210.375 55.242188 C 209.617188 54.960938 208.863281 54.695312 208.105469 54.445312 C 202.132812 52.4375 195.847656 51.21875 189.433594 49.988281 C 188.964844 49.894531 188.476562 49.804688 187.992188 49.722656 C 187.414062 49.613281 186.828125 49.539062 186.242188 49.5 C 181.402344 49.097656 176.378906 50.617188 173.523438 54.519531 C 172.125 56.445312 171.359375 58.789062 170.710938 61.148438 C 169.027344 67.226562 167.535156 73.722656 167.46875 80.3125 C 167.429688 83.148438 167.664062 86.003906 168.257812 88.847656 C 170.894531 101.539062 173.949219 110.964844 171.109375 124.269531 C 169.4375 132.050781 167.746094 139.964844 166.027344 148.015625 Z M 166.027344 148.015625 " fill-opacity="1" fill-rule="nonzero"/><path fill="#f5888b" d="M 183.941406 83.496094 C 183.851562 84.667969 185.332031 85.058594 186.070312 84.058594 C 189.375 79.617188 192.679688 75.175781 195.980469 70.730469 C 198.453125 67.40625 200.921875 64.082031 203.394531 60.757812 C 204.414062 59.386719 207.035156 56.710938 208.105469 54.441406 C 202.132812 52.433594 195.855469 51.214844 189.433594 49.984375 C 188.964844 49.890625 188.476562 49.800781 187.992188 49.71875 C 187.417969 49.609375 186.835938 49.535156 186.242188 49.496094 C 185.691406 52.265625 186.0625 55.882812 185.859375 58.550781 C 185.578125 62.210938 185.292969 65.867188 185.015625 69.53125 C 184.660156 74.1875 184.300781 78.839844 183.941406 83.496094 Z M 183.941406 83.496094 " fill-opacity="1" fill-rule="nonzero"/><path fill="#b1bfdd" d="M 192.804688 107.675781 C 193.90625 108.480469 195.007812 109.296875 196.070312 110.15625 C 202.566406 115.382812 204.953125 114.074219 207.945312 119.148438 C 209.320312 121.484375 214.085938 142.960938 215.804688 156.558594 C 216.707031 156.054688 217.585938 155.53125 218.449219 154.96875 C 220.644531 153.546875 222.71875 151.910156 224.65625 150.070312 C 222.671875 143.101562 220.679688 136.132812 218.691406 129.164062 C 216.972656 123.128906 216.160156 118.320312 216.578125 113.253906 C 216.804688 110.363281 217.445312 107.378906 218.546875 104.039062 C 221.28125 95.679688 225.101562 88.09375 227.441406 80.015625 C 228.515625 76.300781 229.5 72.117188 228.46875 68.40625 C 222.277344 72.519531 218.667969 81.390625 215.910156 88.050781 C 213.539062 93.761719 210.847656 100.351562 206.570312 104.414062 C 203.183594 107.632812 198.804688 109.273438 192.804688 107.675781 Z M 192.804688 107.675781 " fill-opacity="1" fill-rule="nonzero"/><path fill="#f99fa0" d="M 248.640625 168.800781 C 248.53125 168.617188 248.433594 168.425781 248.34375 168.226562 C 247.027344 165.242188 245.574219 162.332031 244.375 159.292969 C 240.214844 148.765625 237.097656 137.882812 234.140625 126.996094 C 232.574219 121.234375 228.125 109.402344 238.265625 108.445312 C 248.621094 107.46875 249.78125 125.363281 250.976562 131.789062 C 251.398438 134.078125 251.824219 136.363281 252.25 138.652344 C 253.863281 147.34375 255.339844 155.800781 256.238281 164.601562 C 256.363281 165.820312 256.484375 167.085938 256.074219 168.25 C 254.875 171.660156 250.394531 171.734375 248.640625 168.800781 Z M 248.640625 168.800781 " fill-opacity="1" fill-rule="nonzero"/><path fill="#f99fa0" d="M 125.894531 149.238281 C 125.957031 149.039062 126.03125 148.847656 126.121094 148.65625 C 127.453125 145.800781 128.644531 142.894531 130.089844 140.089844 C 135.09375 130.378906 141.015625 121.203125 147.042969 112.136719 C 150.230469 107.339844 156 96.589844 163.128906 103.363281 C 170.414062 110.28125 158.15625 122.484375 154.25 127.433594 C 152.859375 129.195312 151.46875 130.957031 150.074219 132.71875 C 144.789062 139.414062 139.585938 145.855469 133.765625 152.101562 C 132.960938 152.964844 132.121094 153.855469 131.011719 154.296875 C 127.773438 155.585938 124.875 152.375 125.894531 149.238281 Z M 125.894531 149.238281 " fill-opacity="1" fill-rule="nonzero"/><path fill="#faa0a0" d="M 232.113281 117.226562 C 225.335938 105.132812 218.984375 92.308594 214.589844 79.128906 C 213.570312 76.070312 212.636719 72.875 212.988281 69.671875 C 213.546875 64.558594 218.617188 60.976562 223.761719 62.515625 C 228.625 63.972656 231.84375 72.226562 233.316406 76.738281 C 239.5625 95.894531 242.78125 100.605469 245.558594 113.257812 C 246.734375 118.632812 246.136719 125.679688 238.957031 124.90625 C 235.691406 124.554688 233.527344 119.753906 232.113281 117.226562 Z M 232.113281 117.226562 " fill-opacity="1" fill-rule="nonzero"/><path fill="#faa0a0" d="M 118.4375 163 C 118.4375 163 120.636719 161.46875 124.742188 160.222656 C 130.089844 158.601562 134.910156 154.097656 134.046875 150.703125 C 133.035156 149.980469 132.03125 149.246094 130.980469 148.605469 C 129.554688 148.066406 128.078125 147.640625 126.585938 147.265625 C 123.132812 147.59375 119.527344 149.347656 117.609375 151.671875 C 114.117188 155.898438 113.914062 160.648438 114.34375 163.859375 C 114.546875 165.371094 116.527344 165.8125 117.386719 164.554688 Z M 118.4375 163 " fill-opacity="1" fill-rule="nonzero"/><path fill="#653750" d="M 204.332031 347.617188 C 204.320312 347.578125 204.3125 347.539062 204.300781 347.5 C 204.199219 347.128906 204.117188 346.925781 204.117188 346.925781 L 204.109375 346.933594 C 203.316406 344.742188 201.550781 342.808594 201.550781 342.808594 C 201.550781 342.808594 200.234375 355.804688 192.835938 360.917969 C 185.824219 365.765625 182.097656 367.035156 178.703125 365.390625 C 177.257812 367.203125 173.765625 371.574219 174.816406 373.15625 C 175.359375 373.96875 176.761719 374.207031 178.167969 374.214844 L 178.5625 374.707031 C 178.5625 374.707031 191.949219 374.671875 198.914062 359.910156 C 199.046875 359.789062 199.183594 359.664062 199.3125 359.542969 L 199.316406 359.550781 C 199.558594 363.011719 199.46875 365.21875 199.652344 367.726562 C 200.359375 368.898438 201.4375 368.664062 202.273438 367.824219 C 202.738281 365.085938 202.09375 362.527344 203.554688 357.5 C 205.101562 352.167969 204.660156 348.9375 204.332031 347.617188 Z M 204.332031 347.617188 " fill-opacity="1" fill-rule="nonzero"/><g clip-path="url(#26979e7297)"><path fill="#faa0a0" d="M 247.492188 166.273438 C 247.492188 166.273438 246.023438 172.460938 247.910156 179.058594 C 248.453125 180.960938 248.871094 182.4375 249.191406 183.578125 C 249.324219 184.054688 250.054688 183.867188 250.035156 183.355469 L 249.808594 177.117188 L 253.605469 187.746094 C 253.992188 188.832031 255.464844 188.9375 256.21875 187.933594 L 259.363281 183.746094 C 260.667969 181.386719 260.976562 178.6875 260.21875 176.308594 L 259.105469 172.800781 C 258.027344 169.414062 256.023438 166.484375 253.300781 164.324219 C 251.6875 163.042969 249.160156 163.621094 247.945312 165.554688 Z M 247.492188 166.273438 " fill-opacity="1" fill-rule="nonzero"/></g><path fill="#dadef0" d="M 223.761719 62.515625 C 223.761719 62.515625 231.40625 56.765625 242.550781 102.921875 C 242.550781 102.921875 238.246094 111.542969 227.605469 108.5 L 211.648438 83.644531 L 211.648438 65.894531 L 216.148438 61.921875 C 218.398438 59.933594 221.847656 60.203125 223.761719 62.515625 Z M 223.761719 62.515625 " fill-opacity="1" fill-rule="nonzero"/></svg>